<svg xmlns="http://www.w3.org/2000/svg" width="40" height="40" viewBox="0 0 40 40">
  <path d="M20 1.667c-8.284 0-15 6.716-15 15s6.716 15 15 15 15-6.716 15-15-6.716-15-15-15zM20 30c-7.18 0-13-5.82-13-13s5.82-13 13-13 13 5.82 13 13-5.82 13-13 13z" fill="#FFDB6E"/>
  <path d="M17.237 8.284c-.093-.056-.2-.101-.312-.101s-.22.045-.312.101c-2.3 1.395-4.144 3.96-4.144 7.215 0 4.268 2.75 7.723 6.154 7.723 1.582 0 3.04-.643 4.132-1.783.09-.075.173-.162.24-.26l4.51-8.767c.543-.943.34-2.15-.374-2.856l-.267-.22c-.714-.585-1.789-.45-2.65.315l-3.94 2.314v2.18c0 .218-.075.423-.21.594-.166.236-.416.39-.698.39-.417 0-.753-.345-.753-.773v-2.058c0-.537.433-.97.967-.97.054 0 .107.006.16.016.232.046.416.238.416.48v2.313c0 .063.038.13.1.17l3.94 2.315c.856.767 1.933.9 2.65.315l.267-.22c.714-.582.917-1.908.374-2.856l-4.51-8.766a.48.48 0 00-.24-.261zM20 31.333c-.417 0-.753-.345-.753-.772v-5.59c0-.28.237-.509.52-.509.118 0 .232.045.32.127l1.91 1.52v4.461c0 .218-.075.424-.21.595-.165.236-.416.39-.698.39z" fill="#FFE887"/>
</svg>
